<?xml version="1.0" encoding="utf-8"?>
<!-- Generator: Adobe Illustrator 21.1.0, SVG Export Plug-In . SVG Version: 6.00 Build 0)  -->
<svg version="1.1" id="Ebene_1" xmlns="http://www.w3.org/2000/svg" xmlns:xlink="http://www.w3.org/1999/xlink" x="0px" y="0px"
	 viewBox="0 0 283.5 311.8" style="enable-background:new 0 0 283.5 311.8;" xml:space="preserve">
<style type="text/css">
	.st0{fill:#141E8C;}
	.st1{fill:#FFFFFF;}
</style>
<g>
	<g>
		<path class="st0" d="M212.6,212.6c-21.6-9.7-45.6-15.2-70.9-15.2c-25.3,0-49.3,5.4-70.9,15.2V70.9h141.7V212.6z"/>
		<g>
			<path class="st1" d="M87.7,114.1c-6.7,0-7.2,6.7-7.2,6.7h-3.2v-10h24.8c0,0,0.2,7.7-7.1,15.9c0,0-7,8.1-7.2,11.7h4
				c5.8,0,6.4-6.7,6.4-6.7h3.3v10H76.1c0,0-0.9-7.6,7.9-16.8c0,0,5.4-6,6.7-10.8L87.7,114.1z"/>
			<path class="st1" d="M150.8,141.7v-3.3h-0.8c-1.4,0-2.5-1.1-2.5-2.5v-19.3c0-1.4,1.1-2.5,2.5-2.5h0.8v-3.3h-16.4v3.3h0.8
				c1.4,0,2.5,1.1,2.5,2.5V136c0,1.4-1.1,2.5-2.5,2.5h-0.8v3.3H150.8z"/>
			<path class="st1" d="M131,141.7v-10h-3.3c0,0-0.6,6.8-6.4,6.8H118v-10.5h1.2c1.4,0,2.5,1.1,2.5,2.5v1.2h3.3v-10.8h-3.3v1.3
				c0,1.4-1.1,2.5-2.5,2.5H118v-10.5h3.3c5.8,0,6.4,6.7,6.4,6.7h3.3v-10h-26.1v3.3h0.8c1.4,0,2.5,1.1,2.5,2.5V136
				c0,1.4-1.1,2.5-2.5,2.5h-0.8v3.3L131,141.7z"/>
			<path class="st1" d="M168.1,114.1c6.7,0,7.2,6.7,7.2,6.7h3.2v-10h-23.7c0,0-3.7,4.9,6,15.9c0,0,7,8.1,7.1,11.7h-4
				c-5.8,0-6.4-6.7-6.4-6.7h-3.3v10h23.9c0,0,4.3-4.7-6.4-16.8c0,0-5.6-5.8-6.7-10.8L168.1,114.1z"/>
			<path class="st1" d="M195.8,114.1c6.6,0,7.2,6.7,7.2,6.7h3.2v-10h-23.7c0,0-3.8,4.9,6,15.9c0,0,7,8.1,7.1,11.7h-4
				c-5.8,0-6.4-6.7-6.4-6.7H182v10h23.9c0,0,4.3-4.7-6.4-16.8c0,0-5.6-5.8-6.7-10.8L195.8,114.1z"/>
		</g>
	</g>
	<g>
		<path d="M35.3,275.1c0.9,0.5,1.7,0.8,2.5,1c0.8,0.2,1.8,0.3,2.7,0.3c0.5,0,1-0.1,1.5-0.2c0.5-0.1,1-0.4,1.3-0.7
			c0.4-0.3,0.7-0.7,1-1.2s0.4-1.1,0.4-1.7c0-0.5-0.1-1-0.3-1.4c-0.2-0.4-0.5-0.8-0.8-1.1s-0.7-0.6-1.2-0.9s-0.9-0.5-1.4-0.8
			l-1.7-0.9c-0.5-0.3-1-0.6-1.5-0.9c-0.5-0.3-0.9-0.7-1.2-1.2c-0.3-0.4-0.6-1-0.8-1.5c-0.2-0.6-0.3-1.3-0.3-2c0-1.1,0.2-2.1,0.6-2.9
			s1-1.5,1.7-2c0.7-0.5,1.5-0.9,2.3-1.1c0.9-0.2,1.7-0.4,2.6-0.4c1.8,0,3.4,0.2,4.9,0.7l-0.2,3c-0.7-0.3-1.4-0.6-2.2-0.7
			c-0.8-0.1-1.6-0.2-2.3-0.2c-0.5,0-0.9,0.1-1.4,0.2c-0.5,0.1-0.9,0.3-1.3,0.6c-0.4,0.3-0.7,0.6-0.9,1s-0.4,1-0.4,1.6
			c0,0.5,0.1,0.9,0.2,1.2c0.2,0.3,0.4,0.7,0.7,0.9s0.6,0.5,1,0.7c0.4,0.2,0.8,0.4,1.1,0.6l1.8,0.9c0.7,0.3,1.3,0.7,1.8,1
			s1,0.8,1.5,1.3c0.4,0.5,0.7,1,1,1.7c0.2,0.6,0.4,1.4,0.4,2.3c0,1.2-0.2,2.2-0.6,3s-0.9,1.6-1.6,2.1s-1.5,1-2.4,1.2
			c-0.9,0.3-1.9,0.4-2.9,0.4c-0.9,0-1.8-0.1-2.7-0.2c-1-0.1-1.9-0.4-2.9-0.7L35.3,275.1z"/>
		<path d="M55.2,271c0,0.8,0.1,1.5,0.3,2.2c0.2,0.7,0.6,1.3,1,1.8c0.5,0.5,1,0.9,1.7,1.3c0.7,0.3,1.5,0.5,2.4,0.5
			c0.7,0,1.5-0.1,2.3-0.3c0.8-0.2,1.5-0.4,2.1-0.8l0.2,2.5c-0.8,0.3-1.6,0.6-2.4,0.7c-0.9,0.1-1.7,0.2-2.7,0.2
			c-1.4,0-2.6-0.2-3.6-0.7c-1-0.4-1.9-1.1-2.6-1.9c-0.7-0.8-1.2-1.7-1.6-2.8s-0.5-2.3-0.5-3.7c0-1.2,0.2-2.3,0.5-3.4
			c0.3-1.1,0.8-2,1.5-2.8c0.6-0.8,1.4-1.5,2.4-1.9c0.9-0.5,2-0.7,3.2-0.7c1.3,0,2.4,0.2,3.2,0.7c0.9,0.4,1.6,1.1,2.1,1.8
			s0.9,1.7,1.1,2.7c0.2,1.1,0.3,2.2,0.3,3.4v1H55.2z M63,268.9c0-0.6-0.1-1.3-0.2-1.9s-0.3-1.2-0.6-1.7c-0.3-0.5-0.6-0.9-1.1-1.2
			c-0.5-0.3-1.1-0.4-1.8-0.4c-0.7,0-1.3,0.2-1.8,0.5c-0.5,0.3-0.9,0.7-1.3,1.2c-0.3,0.5-0.6,1-0.8,1.7c-0.2,0.6-0.3,1.2-0.3,1.9H63z
			"/>
		<path d="M72.6,271c0,0.8,0.1,1.5,0.3,2.2c0.2,0.7,0.6,1.3,1,1.8c0.5,0.5,1,0.9,1.7,1.3c0.7,0.3,1.5,0.5,2.4,0.5
			c0.7,0,1.5-0.1,2.3-0.3c0.8-0.2,1.5-0.4,2.1-0.8l0.2,2.5c-0.8,0.3-1.6,0.6-2.4,0.7c-0.9,0.1-1.7,0.2-2.7,0.2
			c-1.4,0-2.6-0.2-3.6-0.7s-1.9-1.1-2.6-1.9c-0.7-0.8-1.2-1.7-1.6-2.8c-0.3-1.1-0.5-2.3-0.5-3.7c0-1.2,0.2-2.3,0.5-3.4
			c0.3-1.1,0.8-2,1.5-2.8c0.6-0.8,1.4-1.5,2.4-1.9c0.9-0.5,2-0.7,3.2-0.7c1.3,0,2.4,0.2,3.2,0.7s1.6,1.1,2.1,1.8
			c0.5,0.8,0.9,1.7,1.1,2.7s0.3,2.2,0.3,3.4v1H72.6z M80.4,268.9c0-0.6-0.1-1.3-0.2-1.9s-0.3-1.2-0.6-1.7c-0.3-0.5-0.6-0.9-1.1-1.2
			c-0.5-0.3-1.1-0.4-1.8-0.4c-0.7,0-1.3,0.2-1.8,0.5c-0.5,0.3-0.9,0.7-1.3,1.2c-0.4,0.5-0.6,1-0.8,1.7c-0.2,0.6-0.3,1.2-0.3,1.9
			H80.4z"/>
		<path d="M87.6,258.1v-3.3h3.3v3.3H87.6z M87.6,278.8v-17.2h3.3v17.2H87.6z"/>
		<path d="M95.9,278.8v-13.2c0-0.7,0-1.3,0-2s-0.1-1.3-0.1-2h3.1l0.1,3c1.1-2.2,2.9-3.3,5.3-3.3c1,0,1.9,0.2,2.6,0.5
			s1.3,0.8,1.7,1.4s0.7,1.3,0.9,2.1c0.2,0.8,0.3,1.7,0.3,2.7v10.8h-3.3v-10.1c0-0.6,0-1.2-0.1-1.8c-0.1-0.6-0.2-1.1-0.5-1.5
			c-0.2-0.4-0.6-0.8-1-1s-1-0.4-1.7-0.4c-0.8,0-1.4,0.2-1.9,0.5c-0.5,0.3-0.9,0.7-1.2,1.3c-0.3,0.5-0.5,1.1-0.7,1.8
			c-0.1,0.7-0.2,1.3-0.2,2v9.3H95.9z"/>
		<path d="M115.2,282.8c0.7,0.4,1.5,0.7,2.3,0.9c0.8,0.2,1.7,0.3,2.5,0.3c0.9,0,1.7-0.1,2.4-0.4c0.7-0.3,1.2-0.7,1.7-1.3
			c0.4-0.5,0.8-1.2,1-1.9c0.2-0.8,0.3-1.6,0.3-2.5v-2c-0.5,1-1.2,1.7-2.1,2.2s-1.9,0.8-2.9,0.8c-1.2,0-2.2-0.3-3.1-0.8
			c-0.8-0.5-1.5-1.2-2.1-2s-0.9-1.7-1.2-2.8c-0.2-1-0.4-2.1-0.4-3.2c0-1.1,0.1-2.2,0.4-3.3c0.2-1.1,0.6-2,1.2-2.8
			c0.5-0.8,1.2-1.5,2.1-2c0.8-0.5,1.9-0.7,3.1-0.7c1.1,0,2.1,0.3,3,0.8c0.9,0.5,1.6,1.3,2.1,2.4v-2.8h3.1v16.2c0,2.8-0.7,5-2,6.5
			c-1.3,1.5-3.4,2.3-6.1,2.3c-0.9,0-1.9-0.1-2.8-0.2s-1.9-0.4-2.8-0.7L115.2,282.8z M118.1,274.2c0.3,0.6,0.7,1,1.2,1.4
			c0.5,0.4,1.2,0.5,2,0.5c0.8,0,1.4-0.2,2-0.6c0.5-0.4,1-0.9,1.3-1.4c0.3-0.6,0.6-1.2,0.7-1.9c0.1-0.7,0.2-1.4,0.2-2
			c0-0.7-0.1-1.4-0.2-2.1c-0.1-0.7-0.4-1.4-0.7-2c-0.3-0.6-0.8-1.1-1.3-1.5s-1.2-0.6-2-0.6c-0.9,0-1.5,0.2-2.1,0.6
			c-0.5,0.4-1,0.9-1.3,1.5c-0.3,0.6-0.5,1.3-0.6,2s-0.2,1.5-0.2,2.2c0,0.7,0.1,1.3,0.2,2.1C117.6,273,117.8,273.6,118.1,274.2z"/>
		<path d="M144.1,278.8v-24.7h3.3v10.4c0.4-1,1.1-1.8,2-2.4s1.9-0.8,3-0.8c1.2,0,2.3,0.2,3.1,0.7c0.9,0.5,1.5,1.1,2.1,2
			s0.9,1.8,1.1,2.8c0.2,1.1,0.3,2.2,0.3,3.3s-0.1,2.3-0.4,3.3c-0.2,1.1-0.6,2-1.2,2.9c-0.5,0.8-1.2,1.5-2.1,2
			c-0.9,0.5-1.9,0.8-3.1,0.8c-1.1,0-2.1-0.3-3-0.8c-0.9-0.5-1.6-1.3-2.1-2.4l-0.1,2.8H144.1z M148.1,274.4c0.3,0.6,0.8,1.1,1.3,1.5
			c0.5,0.4,1.2,0.6,2,0.6c0.8,0,1.5-0.2,2-0.6c0.5-0.4,1-0.9,1.3-1.5s0.5-1.3,0.6-2.1c0.1-0.8,0.2-1.5,0.2-2.2s-0.1-1.4-0.2-2.2
			c-0.1-0.7-0.3-1.4-0.6-2c-0.3-0.6-0.7-1.1-1.2-1.5c-0.5-0.4-1.2-0.6-2.1-0.6c-0.8,0-1.4,0.2-2,0.6s-1,0.9-1.3,1.5
			c-0.3,0.6-0.6,1.3-0.7,2c-0.1,0.7-0.2,1.4-0.2,2.1c0,0.7,0.1,1.4,0.2,2.1C147.6,273.1,147.8,273.8,148.1,274.4z"/>
		<path d="M165.7,271c0,0.8,0.1,1.5,0.3,2.2c0.2,0.7,0.6,1.3,1,1.8c0.5,0.5,1,0.9,1.7,1.3c0.7,0.3,1.5,0.5,2.4,0.5
			c0.7,0,1.5-0.1,2.3-0.3c0.8-0.2,1.5-0.4,2.1-0.8l0.2,2.5c-0.8,0.3-1.6,0.6-2.4,0.7c-0.9,0.1-1.7,0.2-2.7,0.2
			c-1.4,0-2.6-0.2-3.6-0.7s-1.9-1.1-2.6-1.9c-0.7-0.8-1.2-1.7-1.6-2.8c-0.3-1.1-0.5-2.3-0.5-3.7c0-1.2,0.2-2.3,0.5-3.4
			c0.3-1.1,0.8-2,1.5-2.8c0.6-0.8,1.4-1.5,2.4-1.9c0.9-0.5,2-0.7,3.2-0.7c1.3,0,2.4,0.2,3.2,0.7s1.6,1.1,2.1,1.8
			c0.5,0.8,0.9,1.7,1.1,2.7s0.3,2.2,0.3,3.4v1H165.7z M173.5,268.9c0-0.6-0.1-1.3-0.2-1.9s-0.3-1.2-0.6-1.7
			c-0.3-0.5-0.6-0.9-1.1-1.2c-0.5-0.3-1.1-0.4-1.8-0.4c-0.7,0-1.3,0.2-1.8,0.5c-0.5,0.3-0.9,0.7-1.3,1.2c-0.4,0.5-0.6,1-0.8,1.7
			c-0.2,0.6-0.3,1.2-0.3,1.9H173.5z"/>
		<path d="M179.3,283.7c0.5,0.2,1.1,0.2,1.6,0.2c0.8,0,1.5-0.3,1.9-0.9c0.4-0.6,0.8-1.4,1.2-2.6l0.3-1.1l-5.9-17.8h3.6l4,14.1
			l3.9-14.1h3.3l-6.3,19.4c-0.2,0.7-0.5,1.3-0.8,2c-0.3,0.7-0.6,1.2-1,1.8c-0.4,0.5-0.9,0.9-1.5,1.3c-0.6,0.3-1.3,0.5-2.2,0.5
			c-0.9,0-1.7-0.1-2.4-0.2L179.3,283.7z"/>
		<path d="M199.5,278.6c-1.5-0.7-2.6-1.8-3.4-3.2c-0.8-1.5-1.2-3.2-1.2-5.1c0-1.3,0.2-2.5,0.6-3.6c0.4-1.1,0.9-2,1.6-2.8
			s1.5-1.4,2.5-1.8c1-0.4,2.1-0.7,3.3-0.7c1.3,0,2.4,0.2,3.4,0.6c1,0.4,1.9,1,2.5,1.8c0.7,0.8,1.2,1.7,1.6,2.8
			c0.3,1.1,0.5,2.3,0.5,3.6c0,1.3-0.2,2.5-0.5,3.6c-0.3,1.1-0.9,2.1-1.6,2.9s-1.5,1.4-2.5,1.9c-1,0.4-2.2,0.7-3.4,0.7
			C201.6,279.2,200.5,279,199.5,278.6z M199.5,274.6c0.4,0.6,0.8,1.1,1.4,1.5c0.6,0.4,1.3,0.6,2.1,0.6c0.8,0,1.5-0.2,2.1-0.6
			c0.6-0.4,1-0.9,1.4-1.5s0.6-1.3,0.8-2c0.2-0.8,0.2-1.5,0.2-2.3c0-0.8-0.1-1.5-0.2-2.3c-0.2-0.8-0.4-1.4-0.8-2
			c-0.4-0.6-0.8-1.1-1.4-1.4c-0.6-0.4-1.3-0.5-2.1-0.5c-0.8,0-1.5,0.2-2.1,0.5c-0.6,0.4-1,0.9-1.4,1.5c-0.4,0.6-0.6,1.3-0.8,2
			c-0.2,0.7-0.2,1.5-0.2,2.2c0,0.8,0.1,1.5,0.2,2.3C198.9,273.3,199.1,274,199.5,274.6z"/>
		<path d="M215.1,278.8v-13.2c0-0.7,0-1.3,0-2c0-0.7-0.1-1.3-0.1-2h3.1l0.1,3c1.1-2.2,2.9-3.3,5.3-3.3c1,0,1.9,0.2,2.6,0.5
			s1.3,0.8,1.7,1.4s0.7,1.3,0.9,2.1s0.3,1.7,0.3,2.7v10.8h-3.3v-10.1c0-0.6,0-1.2-0.1-1.8c-0.1-0.6-0.2-1.1-0.5-1.5s-0.6-0.8-1-1
			c-0.4-0.3-1-0.4-1.7-0.4c-0.8,0-1.4,0.2-1.9,0.5c-0.5,0.3-0.9,0.7-1.2,1.3c-0.3,0.5-0.5,1.1-0.7,1.8c-0.1,0.7-0.2,1.3-0.2,2v9.3
			H215.1z"/>
		<path d="M245.1,278.8l-0.2-2.8c-0.5,1.1-1.2,1.9-2.1,2.4c-0.9,0.5-1.9,0.8-3,0.8c-1.2,0-2.3-0.3-3.1-0.8c-0.9-0.5-1.6-1.2-2.1-2
			c-0.5-0.8-0.9-1.8-1.2-2.9c-0.2-1.1-0.4-2.2-0.4-3.3s0.1-2.2,0.4-3.3c0.2-1.1,0.6-2,1.2-2.8c0.5-0.8,1.2-1.5,2.1-2
			c0.9-0.5,1.9-0.7,3.1-0.7c1,0,2,0.3,2.9,0.8c0.9,0.5,1.6,1.3,2,2.4v-10.4h3.3v19.6c0,1,0,1.9,0,2.7c0,0.8,0.1,1.7,0.1,2.5H245.1z
			 M237.4,274.4c0.3,0.6,0.7,1.1,1.3,1.5c0.5,0.4,1.2,0.6,2,0.6c0.8,0,1.4-0.2,2-0.6c0.5-0.4,1-0.9,1.3-1.5c0.3-0.6,0.6-1.3,0.7-2
			c0.1-0.7,0.2-1.5,0.2-2.1c0-0.7-0.1-1.4-0.2-2.1c-0.1-0.7-0.4-1.4-0.7-2c-0.3-0.6-0.8-1.1-1.3-1.5c-0.5-0.4-1.2-0.6-2-0.6
			c-0.9,0-1.5,0.2-2.1,0.6c-0.5,0.4-0.9,0.9-1.2,1.5c-0.3,0.6-0.5,1.3-0.6,2s-0.2,1.5-0.2,2.2c0,0.7,0.1,1.4,0.2,2.2
			C236.8,273.1,237,273.8,237.4,274.4z"/>
	</g>
</g>
</svg>
